<svg version="1.1" xmlns="http://www.w3.org/2000/svg" width="900" height="350"><defs><clipPath id="gOKEkhIgtMFP"><path fill="none" stroke="none" d="M 61.5 5.5 L 838.5 5.5 L 838.5 300.5 L 61.5 300.5 L 61.5 5.5"/></clipPath><clipPath id="qosJcSEbSirh"><path fill="none" stroke="none" d="M 61.5 5.5 L 838.5 5.5 L 838.5 300.5 L 61.5 300.5 L 61.5 5.5"/></clipPath><clipPath id="LXRTnOcfwAJM"><path fill="none" stroke="none" d="M 61.5 5.5 L 838.5 5.5 L 838.5 300.5 L 61.5 300.5 L 61.5 5.5"/></clipPath><clipPath id="eqBUGywhdrdJ"><path fill="none" stroke="none" d="M 61.5 5.5 L 838.5 5.5 L 838.5 300.5 L 61.5 300.5 L 61.5 5.5"/></clipPath><clipPath id="tNIKLmUnpeLk"><path fill="none" stroke="none" d="M 61.5 5.5 L 838.5 5.5 L 838.5 300.5 L 61.5 300.5 L 61.5 5.5"/></clipPath><clipPath id="TBPyQlTZzOtT"><path fill="none" stroke="none" d="M 61.5 5.5 L 838.5 5.5 L 838.5 300.5 L 61.5 300.5 L 61.5 5.5"/></clipPath></defs><path fill="rgb(255,255,255)" stroke="none" paint-order="stroke" d="M 0.5 0.5 L 900.5 0.5 L 900.5 350.5 L 0.5 350.5 L 0.5 0.5" fill-opacity="1"/><rect fill="#FFFFFF" stroke="none" x="61" y="5" width="777" height="295" transform="matrix(1, 0, 0, 1, 0.5, 0.5)"/><path fill="rgb(255,255,255)" stroke="none" paint-order="stroke" d="M 61.5 5.5 L 838.5 5.5 L 838.5 300.5 L 61.5 300.5 L 61.5 5.5" fill-opacity="1"/><path fill="none" stroke="rgb(229,229,229)" paint-order="fill" d="M 61.5 5.5 L 838.5 5.5 L 838.5 300.5 L 61.5 300.5 L 61.5 5.5" stroke-opacity="1" stroke-linejoin="bevel" stroke-miterlimit="10" stroke-dasharray=""/><path fill="none" stroke="rgb(229,229,229)" paint-order="fill" d="M 96.5 300.5 L 96.5 5.5 M 238.5 300.5 L 238.5 5.5 M 379.5 300.5 L 379.5 5.5 M 520.5 300.5 L 520.5 5.5 M 661.5 300.5 L 661.5 5.5 M 803.5 300.5 L 803.5 5.5" stroke-opacity="1" stroke-linejoin="bevel" stroke-miterlimit="10" stroke-dasharray="" clip-path="url(#gOKEkhIgtMFP)"/><path fill="none" stroke="rgb(229,229,229)" paint-order="fill" d="M 61.5 287.5 L 838.5 287.5 M 61.5 237.5 L 838.5 237.5 M 61.5 187.5 L 838.5 187.5 M 61.5 136.5 L 838.5 136.5 M 61.5 86.5 L 838.5 86.5 M 61.5 36.5 L 838.5 36.5" stroke-opacity="1" stroke-linejoin="bevel" stroke-miterlimit="10" stroke-dasharray="" clip-path="url(#qosJcSEbSirh)"/><path fill="none" stroke="rgb(168,221,181)" paint-order="fill" d="M 96.81818389892578 244.4540557861328 L 238.09091186523438 18.909090042114258 L 379.3636474609375 53.28881072998047 L 520.6363525390625 273.6292724609375 L 661.9091186523438 66.75044250488281 L 803.1818237304688 164.4348907470703" stroke-opacity="1" stroke-linejoin="bevel" stroke-miterlimit="10" stroke-width="4" stroke-dasharray="" clip-path="url(#LXRTnOcfwAJM)"/><path fill="rgb(255,0,0)" stroke="rgb(255,0,0)" paint-order="fill" d="M 96.81818389892578 300.5 L 96.81818389892578 300.5 L 96.81818389892578 300.5 L 96.81818389892578 300.5 L 96.81818389892578 300.5" fill-opacity="1" clip-path="url(#eqBUGywhdrdJ)" stroke-opacity="1" stroke-linejoin="bevel" stroke-miterlimit="10" stroke-dasharray=""/><path fill="rgb(255,0,0)" stroke="rgb(255,0,0)" paint-order="fill" d="M 238.09091186523438 246.4502716064453 L 238.09091186523438 246.4502716064453 L 238.09091186523438 300.5 L 238.09091186523438 300.5 L 238.09091186523438 246.4502716064453" fill-opacity="1" clip-path="url(#eqBUGywhdrdJ)" stroke-opacity="1" stroke-linejoin="bevel" stroke-miterlimit="10" stroke-dasharray=""/><path fill="rgb(255,0,0)" stroke="rgb(255,0,0)" paint-order="fill" d="M 379.3636474609375 175.2418975830078 L 379.3636474609375 175.2418975830078 L 379.3636474609375 300.5 L 379.3636474609375 300.5 L 379.3636474609375 175.2418975830078" fill-opacity="1" clip-path="url(#eqBUGywhdrdJ)" stroke-opacity="1" stroke-linejoin="bevel" stroke-miterlimit="10" stroke-dasharray=""/><path fill="rgb(255,0,0)" stroke="rgb(255,0,0)" paint-order="fill" d="M 520.6363525390625 291.9206848144531 L 520.6363525390625 291.9206848144531 L 520.6363525390625 300.5 L 520.6363525390625 300.5 L 520.6363525390625 291.9206848144531" fill-opacity="1" clip-path="url(#eqBUGywhdrdJ)" stroke-opacity="1" stroke-linejoin="bevel" stroke-miterlimit="10" stroke-dasharray=""/><path fill="rgb(255,0,0)" stroke="rgb(255,0,0)" paint-order="fill" d="M 661.9091186523438 43.9782600402832 L 661.9091186523438 43.9782600402832 L 661.9091186523438 300.5 L 661.9091186523438 300.5 L 661.9091186523438 43.9782600402832" fill-opacity="1" clip-path="url(#eqBUGywhdrdJ)" stroke-opacity="1" stroke-linejoin="bevel" stroke-miterlimit="10" stroke-dasharray=""/><path fill="rgb(255,0,0)" stroke="rgb(255,0,0)" paint-order="fill" d="M 803.1818237304688 209.98814392089844 L 803.1818237304688 209.98814392089844 L 803.1818237304688 300.5 L 803.1818237304688 300.5 L 803.1818237304688 209.98814392089844" fill-opacity="1" clip-path="url(#eqBUGywhdrdJ)" stroke-opacity="1" stroke-linejoin="bevel" stroke-miterlimit="10" stroke-dasharray=""/><path fill="none" stroke="rgb(0,0,0)" paint-order="fill" d="M 61.5 300.5 L 838.5 300.5" stroke-opacity="1" stroke-linejoin="bevel" stroke-miterlimit="10" stroke-dasharray=""/><path fill="none" stroke="rgb(0,0,0)" paint-order="fill" d="M 96.5 306.5 L 96.5 298.5 M 238.5 306.5 L 238.5 298.5 M 379.5 306.5 L 379.5 298.5 M 520.5 306.5 L 520.5 298.5 M 661.5 306.5 L 661.5 298.5 M 803.5 306.5 L 803.5 298.5" stroke-opacity="1" stroke-linejoin="bevel" stroke-miterlimit="10" stroke-dasharray=""/><path fill="none" stroke="rgb(0,0,0)" paint-order="fill" d="" stroke-opacity="1" stroke-linejoin="bevel" stroke-miterlimit="10" stroke-dasharray=""/><text fill="rgb(68,68,68)" stroke="none" font-family="helvetica" font-size="11px" font-style="normal" font-weight="normal" text-decoration="normal" x="85.61359405517578" y="321" text-anchor="start" dominant-baseline="alphabetic" transform="matrix(1, 0, 0, 1, 0.5, 0.5)" fill-opacity="1">8/30</text><text fill="rgb(68,68,68)" stroke="none" font-family="helvetica" font-size="11px" font-style="normal" font-weight="normal" text-decoration="normal" x="226.88632202148438" y="321" text-anchor="start" dominant-baseline="alphabetic" transform="matrix(1, 0, 0, 1, 0.5, 0.5)" fill-opacity="1">8/31</text><text fill="rgb(68,68,68)" stroke="none" font-family="helvetica" font-size="11px" font-style="normal" font-weight="normal" text-decoration="normal" x="368.1590576171875" y="321" text-anchor="start" dominant-baseline="alphabetic" transform="matrix(1, 0, 0, 1, 0.5, 0.5)" fill-opacity="1">9/01</text><text fill="rgb(68,68,68)" stroke="none" font-family="helvetica" font-size="11px" font-style="normal" font-weight="normal" text-decoration="normal" x="509.4317626953125" y="321" text-anchor="start" dominant-baseline="alphabetic" transform="matrix(1, 0, 0, 1, 0.5, 0.5)" fill-opacity="1">9/02</text><text fill="rgb(68,68,68)" stroke="none" font-family="helvetica" font-size="11px" font-style="normal" font-weight="normal" text-decoration="normal" x="650.7045288085938" y="321" text-anchor="start" dominant-baseline="alphabetic" transform="matrix(1, 0, 0, 1, 0.5, 0.5)" fill-opacity="1">9/03</text><text fill="rgb(68,68,68)" stroke="none" font-family="helvetica" font-size="11px" font-style="normal" font-weight="normal" text-decoration="normal" x="791.9772338867188" y="321" text-anchor="start" dominant-baseline="alphabetic" transform="matrix(1, 0, 0, 1, 0.5, 0.5)" fill-opacity="1">9/04</text><text fill="rgb(68,68,68)" stroke="none" font-family="helvetica" font-size="13px" font-style="italic" font-weight="normal" text-decoration="normal" x="439.02001953125" y="344" text-anchor="start" dominant-baseline="alphabetic" transform="matrix(1, 0, 0, 1, 0.5, 0.5)" fill-opacity="1">day</text><path fill="none" stroke="rgb(0,0,0)" paint-order="fill" d="M 61.5 300.5 L 61.5 5.5" stroke-opacity="1" stroke-linejoin="bevel" stroke-miterlimit="10" stroke-dasharray=""/><path fill="none" stroke="rgb(0,0,0)" paint-order="fill" d="M 55.5 287.5 L 63.5 287.5 M 55.5 237.5 L 63.5 237.5 M 55.5 187.5 L 63.5 187.5 M 55.5 136.5 L 63.5 136.5 M 55.5 86.5 L 63.5 86.5 M 55.5 36.5 L 63.5 36.5" stroke-opacity="1" stroke-linejoin="bevel" stroke-miterlimit="10" stroke-dasharray=""/><path fill="none" stroke="rgb(0,0,0)" paint-order="fill" d="M 57.5 297.5 L 61.5 297.5 M 57.5 287.5 L 61.5 287.5 M 57.5 277.5 L 61.5 277.5 M 57.5 267.5 L 61.5 267.5 M 57.5 257.5 L 61.5 257.5 M 57.5 247.5 L 61.5 247.5 M 57.5 237.5 L 61.5 237.5 M 57.5 227.5 L 61.5 227.5 M 57.5 217.5 L 61.5 217.5 M 57.5 207.5 L 61.5 207.5 M 57.5 197.5 L 61.5 197.5 M 57.5 187.5 L 61.5 187.5 M 57.5 176.5 L 61.5 176.5 M 57.5 166.5 L 61.5 166.5 M 57.5 156.5 L 61.5 156.5 M 57.5 146.5 L 61.5 146.5 M 57.5 136.5 L 61.5 136.5 M 57.5 126.5 L 61.5 126.5 M 57.5 116.5 L 61.5 116.5 M 57.5 106.5 L 61.5 106.5 M 57.5 96.5 L 61.5 96.5 M 57.5 86.5 L 61.5 86.5 M 57.5 76.5 L 61.5 76.5 M 57.5 66.5 L 61.5 66.5 M 57.5 56.5 L 61.5 56.5 M 57.5 46.5 L 61.5 46.5 M 57.5 36.5 L 61.5 36.5 M 57.5 26.5 L 61.5 26.5 M 57.5 16.5 L 61.5 16.5 M 57.5 6.5 L 61.5 6.5" stroke-opacity="1" stroke-linejoin="bevel" stroke-miterlimit="10" stroke-dasharray=""/><text fill="rgb(68,68,68)" stroke="none" font-family="helvetica" font-size="11px" font-style="normal" font-weight="normal" text-decoration="normal" x="43.88232421875" y="290.5359802246094" text-anchor="start" dominant-baseline="alphabetic" transform="matrix(1, 0, 0, 1, 0.5, 0.5)" fill-opacity="1">0</text><text fill="rgb(68,68,68)" stroke="none" font-family="helvetica" font-size="11px" font-style="normal" font-weight="normal" text-decoration="normal" x="25.529296875" y="240.4927215576172" text-anchor="start" dominant-baseline="alphabetic" transform="matrix(1, 0, 0, 1, 0.5, 0.5)" fill-opacity="1">1000</text><text fill="rgb(68,68,68)" stroke="none" font-family="helvetica" font-size="11px" font-style="normal" font-weight="normal" text-decoration="normal" x="25.529296875" y="190.449462890625" text-anchor="start" dominant-baseline="alphabetic" transform="matrix(1, 0, 0, 1, 0.5, 0.5)" fill-opacity="1">2000</text><text fill="rgb(68,68,68)" stroke="none" font-family="helvetica" font-size="11px" font-style="normal" font-weight="normal" text-decoration="normal" x="25.529296875" y="140.4062042236328" text-anchor="start" dominant-baseline="alphabetic" transform="matrix(1, 0, 0, 1, 0.5, 0.5)" fill-opacity="1">3000</text><text fill="rgb(68,68,68)" stroke="none" font-family="helvetica" font-size="11px" font-style="normal" font-weight="normal" text-decoration="normal" x="25.529296875" y="90.36294555664062" text-anchor="start" dominant-baseline="alphabetic" transform="matrix(1, 0, 0, 1, 0.5, 0.5)" fill-opacity="1">4000</text><text fill="rgb(68,68,68)" stroke="none" font-family="helvetica" font-size="11px" font-style="normal" font-weight="normal" text-decoration="normal" x="25.529296875" y="40.31968688964844" text-anchor="start" dominant-baseline="alphabetic" transform="matrix(1, 0, 0, 1, 0.5, 0.5)" fill-opacity="1">5000</text><text fill="rgb(68,68,68)" stroke="none" font-family="helvetica" font-size="13px" font-style="italic" font-weight="normal" text-decoration="normal" x="-49.31787109375" y="149.5" text-anchor="start" dominant-baseline="alphabetic" transform="matrix(6.123233995736766e-17, -1, 1, 6.123233995736766e-17, -134.470703125, 170.529296875)" fill-opacity="1">Document Length Total</text><path fill="none" stroke="rgb(0,0,0)" paint-order="fill" d="M 838.5 300.5 L 838.5 5.5" stroke-opacity="1" stroke-linejoin="bevel" stroke-miterlimit="10" stroke-dasharray=""/><path fill="none" stroke="rgb(0,0,0)" paint-order="fill" d="M 844.5 300.5 L 836.5 300.5 M 844.5 257.5 L 836.5 257.5 M 844.5 214.5 L 836.5 214.5 M 844.5 171.5 L 836.5 171.5 M 844.5 128.5 L 836.5 128.5 M 844.5 86.5 L 836.5 86.5 M 844.5 43.5 L 836.5 43.5" stroke-opacity="1" stroke-linejoin="bevel" stroke-miterlimit="10" stroke-dasharray=""/><path fill="none" stroke="rgb(0,0,0)" paint-order="fill" d="M 842.5 300.5 L 838.5 300.5 M 842.5 291.5 L 838.5 291.5 M 842.5 283.5 L 838.5 283.5 M 842.5 274.5 L 838.5 274.5 M 842.5 266.5 L 838.5 266.5 M 842.5 257.5 L 838.5 257.5 M 842.5 249.5 L 838.5 249.5 M 842.5 240.5 L 838.5 240.5 M 842.5 231.5 L 838.5 231.5 M 842.5 223.5 L 838.5 223.5 M 842.5 214.5 L 838.5 214.5 M 842.5 206.5 L 838.5 206.5 M 842.5 197.5 L 838.5 197.5 M 842.5 188.5 L 838.5 188.5 M 842.5 180.5 L 838.5 180.5 M 842.5 171.5 L 838.5 171.5 M 842.5 163.5 L 838.5 163.5 M 842.5 154.5 L 838.5 154.5 M 842.5 146.5 L 838.5 146.5 M 842.5 137.5 L 838.5 137.5 M 842.5 128.5 L 838.5 128.5 M 842.5 120.5 L 838.5 120.5 M 842.5 111.5 L 838.5 111.5 M 842.5 103.5 L 838.5 103.5 M 842.5 94.5 L 838.5 94.5 M 842.5 86.5 L 838.5 86.5 M 842.5 77.5 L 838.5 77.5 M 842.5 68.5 L 838.5 68.5 M 842.5 60.5 L 838.5 60.5 M 842.5 51.5 L 838.5 51.5 M 842.5 43.5 L 838.5 43.5 M 842.5 34.5 L 838.5 34.5 M 842.5 25.5 L 838.5 25.5 M 842.5 17.5 L 838.5 17.5 M 842.5 8.5 L 838.5 8.5" stroke-opacity="1" stroke-linejoin="bevel" stroke-miterlimit="10" stroke-dasharray=""/><text fill="rgb(68,68,68)" stroke="none" font-family="helvetica" font-size="11px" font-style="normal" font-weight="normal" text-decoration="normal" x="849" y="303.945068359375" text-anchor="start" dominant-baseline="alphabetic" transform="matrix(1, 0, 0, 1, 0.5, 0.5)" fill-opacity="1">0</text><text fill="rgb(68,68,68)" stroke="none" font-family="helvetica" font-size="11px" font-style="normal" font-weight="normal" text-decoration="normal" x="849" y="261.0484619140625" text-anchor="start" dominant-baseline="alphabetic" transform="matrix(1, 0, 0, 1, 0.5, 0.5)" fill-opacity="1">100</text><text fill="rgb(68,68,68)" stroke="none" font-family="helvetica" font-size="11px" font-style="normal" font-weight="normal" text-decoration="normal" x="849" y="218.15184020996094" text-anchor="start" dominant-baseline="alphabetic" transform="matrix(1, 0, 0, 1, 0.5, 0.5)" fill-opacity="1">200</text><text fill="rgb(68,68,68)" stroke="none" font-family="helvetica" font-size="11px" font-style="normal" font-weight="normal" text-decoration="normal" x="849" y="175.25523376464844" text-anchor="start" dominant-baseline="alphabetic" transform="matrix(1, 0, 0, 1, 0.5, 0.5)" fill-opacity="1">300</text><text fill="rgb(68,68,68)" stroke="none" font-family="helvetica" font-size="11px" font-style="normal" font-weight="normal" text-decoration="normal" x="849" y="132.35862731933594" text-anchor="start" dominant-baseline="alphabetic" transform="matrix(1, 0, 0, 1, 0.5, 0.5)" fill-opacity="1">400</text><text fill="rgb(68,68,68)" stroke="none" font-family="helvetica" font-size="11px" font-style="normal" font-weight="normal" text-decoration="normal" x="849" y="89.46200561523438" text-anchor="start" dominant-baseline="alphabetic" transform="matrix(1, 0, 0, 1, 0.5, 0.5)" fill-opacity="1">500</text><text fill="rgb(68,68,68)" stroke="none" font-family="helvetica" font-size="11px" font-style="normal" font-weight="normal" text-decoration="normal" x="849" y="46.56539535522461" text-anchor="start" dominant-baseline="alphabetic" transform="matrix(1, 0, 0, 1, 0.5, 0.5)" fill-opacity="1">600</text><path fill="rgb(255,255,255)" stroke="rgb(229,229,229)" paint-order="fill" d="M 697.5614013671875 15.5 L 828.5 15.5 L 828.5 78.5 L 697.5614013671875 78.5 L 697.5614013671875 15.5" fill-opacity="0.9490196078431372" clip-path="url(#tNIKLmUnpeLk)" stroke-opacity="0.5019607843137255" stroke-linejoin="bevel" stroke-miterlimit="10" stroke-dasharray=""/><g clip-path="url(#tNIKLmUnpeLk)"><text fill="rgb(68,68,68)" stroke="none" font-family="helvetica" font-size="13px" font-style="normal" font-weight="normal" text-decoration="normal" x="732.0614013671875" y="35" text-anchor="start" dominant-baseline="central" transform="matrix(1, 0, 0, 1, 0.5, 0.5)" fill-opacity="1">수정된 문서의 양</text></g><path fill="none" stroke="rgb(168,221,181)" paint-order="fill" d="M 707.5614013671875 35.5 L 727.5614013671875 35.5" stroke-opacity="1" stroke-linejoin="bevel" stroke-miterlimit="10" stroke-width="4" stroke-dasharray="" clip-path="url(#tNIKLmUnpeLk)"/><g clip-path="url(#tNIKLmUnpeLk)"><text fill="rgb(68,68,68)" stroke="none" font-family="helvetica" font-size="13px" font-style="normal" font-weight="normal" text-decoration="normal" x="732.0614013671875" y="58" text-anchor="start" dominant-baseline="central" transform="matrix(1, 0, 0, 1, 0.5, 0.5)" fill-opacity="1">수정된 양</text></g><path fill="rgb(255,0,0)" stroke="rgb(255,0,0)" paint-order="fill" d="M 709.5614013671875 50.5 L 725.5614013671875 50.5 L 725.5614013671875 66.5 L 709.5614013671875 66.5 L 709.5614013671875 50.5" fill-opacity="1" clip-path="url(#tNIKLmUnpeLk)" stroke-opacity="1" stroke-linejoin="bevel" stroke-miterlimit="10" stroke-dasharray=""/></svg>