<svg version="1.1" xmlns="http://www.w3.org/2000/svg" width="900" height="350"><defs><clipPath id="XxaFQyqVOnyW"><path fill="none" stroke="none" d="M 61.5 5.5 L 838.5 5.5 L 838.5 300.5 L 61.5 300.5 L 61.5 5.5"/></clipPath><clipPath id="VESHBkZqAnrU"><path fill="none" stroke="none" d="M 61.5 5.5 L 838.5 5.5 L 838.5 300.5 L 61.5 300.5 L 61.5 5.5"/></clipPath><clipPath id="PFUQElnIVwDs"><path fill="none" stroke="none" d="M 61.5 5.5 L 838.5 5.5 L 838.5 300.5 L 61.5 300.5 L 61.5 5.5"/></clipPath><clipPath id="actBqUrDyvXI"><path fill="none" stroke="none" d="M 61.5 5.5 L 838.5 5.5 L 838.5 300.5 L 61.5 300.5 L 61.5 5.5"/></clipPath><clipPath id="EedNZJxHEiVH"><path fill="none" stroke="none" d="M 61.5 5.5 L 838.5 5.5 L 838.5 300.5 L 61.5 300.5 L 61.5 5.5"/></clipPath><clipPath id="hkuKgbHTWXXs"><path fill="none" stroke="none" d="M 61.5 5.5 L 838.5 5.5 L 838.5 300.5 L 61.5 300.5 L 61.5 5.5"/></clipPath></defs><path fill="rgb(255,255,255)" stroke="none" paint-order="stroke" d="M 0.5 0.5 L 900.5 0.5 L 900.5 350.5 L 0.5 350.5 L 0.5 0.5" fill-opacity="1"/><rect fill="#FFFFFF" stroke="none" x="61" y="5" width="777" height="295" transform="matrix(1, 0, 0, 1, 0.5, 0.5)"/><path fill="rgb(255,255,255)" stroke="none" paint-order="stroke" d="M 61.5 5.5 L 838.5 5.5 L 838.5 300.5 L 61.5 300.5 L 61.5 5.5" fill-opacity="1"/><path fill="none" stroke="rgb(229,229,229)" paint-order="fill" d="M 61.5 5.5 L 838.5 5.5 L 838.5 300.5 L 61.5 300.5 L 61.5 5.5" stroke-opacity="1" stroke-linejoin="bevel" stroke-miterlimit="10" stroke-dasharray=""/><path fill="none" stroke="rgb(229,229,229)" paint-order="fill" d="M 136.5 300.5 L 136.5 5.5 M 273.5 300.5 L 273.5 5.5 M 410.5 300.5 L 410.5 5.5 M 548.5 300.5 L 548.5 5.5 M 724.5 300.5 L 724.5 5.5" stroke-opacity="1" stroke-linejoin="bevel" stroke-miterlimit="10" stroke-dasharray="" clip-path="url(#XxaFQyqVOnyW)"/><path fill="none" stroke="rgb(229,229,229)" paint-order="fill" d="M 61.5 287.5 L 838.5 287.5 M 61.5 225.5 L 838.5 225.5 M 61.5 163.5 L 838.5 163.5 M 61.5 102.5 L 838.5 102.5 M 61.5 40.5 L 838.5 40.5" stroke-opacity="1" stroke-linejoin="bevel" stroke-miterlimit="10" stroke-dasharray="" clip-path="url(#VESHBkZqAnrU)"/><path fill="none" stroke="rgb(168,221,181)" paint-order="fill" d="M 96.81818389892578 260.8245544433594 L 116.43939208984375 121.87808227539062 L 136.06060791015625 143.05763244628906 L 155.68182373046875 278.79791259765625 L 175.3030242919922 151.35064697265625 L 194.9242401123047 211.5289306640625 L 234.1666717529297 241.00149536132812 L 803.1818237304688 18.909090042114258" stroke-opacity="1" stroke-linejoin="bevel" stroke-miterlimit="10" stroke-width="4" stroke-dasharray="" clip-path="url(#PFUQElnIVwDs)"/><path fill="rgb(255,0,0)" stroke="rgb(255,0,0)" paint-order="fill" d="M 96.81818389892578 300.5 L 96.81818389892578 300.5 L 96.81818389892578 300.5 L 96.81818389892578 300.5 L 96.81818389892578 300.5" fill-opacity="1" clip-path="url(#actBqUrDyvXI)" stroke-opacity="1" stroke-linejoin="bevel" stroke-miterlimit="10" stroke-dasharray=""/><path fill="rgb(255,0,0)" stroke="rgb(255,0,0)" paint-order="fill" d="M 116.43939208984375 246.4502716064453 L 116.43939208984375 246.4502716064453 L 116.43939208984375 300.5 L 116.43939208984375 300.5 L 116.43939208984375 246.4502716064453" fill-opacity="1" clip-path="url(#actBqUrDyvXI)" stroke-opacity="1" stroke-linejoin="bevel" stroke-miterlimit="10" stroke-dasharray=""/><path fill="rgb(255,0,0)" stroke="rgb(255,0,0)" paint-order="fill" d="M 136.06060791015625 175.2418975830078 L 136.06060791015625 175.2418975830078 L 136.06060791015625 300.5 L 136.06060791015625 300.5 L 136.06060791015625 175.2418975830078" fill-opacity="1" clip-path="url(#actBqUrDyvXI)" stroke-opacity="1" stroke-linejoin="bevel" stroke-miterlimit="10" stroke-dasharray=""/><path fill="rgb(255,0,0)" stroke="rgb(255,0,0)" paint-order="fill" d="M 155.68182373046875 291.9206848144531 L 155.68182373046875 291.9206848144531 L 155.68182373046875 300.5 L 155.68182373046875 300.5 L 155.68182373046875 291.9206848144531" fill-opacity="1" clip-path="url(#actBqUrDyvXI)" stroke-opacity="1" stroke-linejoin="bevel" stroke-miterlimit="10" stroke-dasharray=""/><path fill="rgb(255,0,0)" stroke="rgb(255,0,0)" paint-order="fill" d="M 175.3030242919922 43.9782600402832 L 175.3030242919922 43.9782600402832 L 175.3030242919922 300.5 L 175.3030242919922 300.5 L 175.3030242919922 43.9782600402832" fill-opacity="1" clip-path="url(#actBqUrDyvXI)" stroke-opacity="1" stroke-linejoin="bevel" stroke-miterlimit="10" stroke-dasharray=""/><path fill="rgb(255,0,0)" stroke="rgb(255,0,0)" paint-order="fill" d="M 194.9242401123047 209.98814392089844 L 194.9242401123047 209.98814392089844 L 194.9242401123047 300.5 L 194.9242401123047 300.5 L 194.9242401123047 209.98814392089844" fill-opacity="1" clip-path="url(#actBqUrDyvXI)" stroke-opacity="1" stroke-linejoin="bevel" stroke-miterlimit="10" stroke-dasharray=""/><path fill="rgb(255,0,0)" stroke="rgb(255,0,0)" paint-order="fill" d="M 234.1666717529297 261.0351257324219 L 234.1666717529297 261.0351257324219 L 234.1666717529297 300.5 L 234.1666717529297 300.5 L 234.1666717529297 261.0351257324219" fill-opacity="1" clip-path="url(#actBqUrDyvXI)" stroke-opacity="1" stroke-linejoin="bevel" stroke-miterlimit="10" stroke-dasharray=""/><path fill="rgb(255,0,0)" stroke="rgb(255,0,0)" paint-order="fill" d="M 803.1818237304688 51.699649810791016 L 803.1818237304688 51.699649810791016 L 803.1818237304688 300.5 L 803.1818237304688 300.5 L 803.1818237304688 51.699649810791016" fill-opacity="1" clip-path="url(#actBqUrDyvXI)" stroke-opacity="1" stroke-linejoin="bevel" stroke-miterlimit="10" stroke-dasharray=""/><path fill="none" stroke="rgb(0,0,0)" paint-order="fill" d="M 61.5 300.5 L 838.5 300.5" stroke-opacity="1" stroke-linejoin="bevel" stroke-miterlimit="10" stroke-dasharray=""/><path fill="none" stroke="rgb(0,0,0)" paint-order="fill" d="M 136.5 306.5 L 136.5 298.5 M 273.5 306.5 L 273.5 298.5 M 410.5 306.5 L 410.5 298.5 M 548.5 306.5 L 548.5 298.5 M 724.5 306.5 L 724.5 298.5" stroke-opacity="1" stroke-linejoin="bevel" stroke-miterlimit="10" stroke-dasharray=""/><path fill="none" stroke="rgb(0,0,0)" paint-order="fill" d="" stroke-opacity="1" stroke-linejoin="bevel" stroke-miterlimit="10" stroke-dasharray=""/><text fill="rgb(68,68,68)" stroke="none" font-family="helvetica" font-size="11px" font-style="normal" font-weight="normal" text-decoration="normal" x="124.85601806640625" y="321" text-anchor="start" dominant-baseline="alphabetic" transform="matrix(1, 0, 0, 1, 0.5, 0.5)" fill-opacity="1">9/01</text><text fill="rgb(68,68,68)" stroke="none" font-family="helvetica" font-size="11px" font-style="normal" font-weight="normal" text-decoration="normal" x="262.2044982910156" y="321" text-anchor="start" dominant-baseline="alphabetic" transform="matrix(1, 0, 0, 1, 0.5, 0.5)" fill-opacity="1">9/08</text><text fill="rgb(68,68,68)" stroke="none" font-family="helvetica" font-size="11px" font-style="normal" font-weight="normal" text-decoration="normal" x="399.552978515625" y="321" text-anchor="start" dominant-baseline="alphabetic" transform="matrix(1, 0, 0, 1, 0.5, 0.5)" fill-opacity="1">9/15</text><text fill="rgb(68,68,68)" stroke="none" font-family="helvetica" font-size="11px" font-style="normal" font-weight="normal" text-decoration="normal" x="536.9014892578125" y="321" text-anchor="start" dominant-baseline="alphabetic" transform="matrix(1, 0, 0, 1, 0.5, 0.5)" fill-opacity="1">9/22</text><text fill="rgb(68,68,68)" stroke="none" font-family="helvetica" font-size="11px" font-style="normal" font-weight="normal" text-decoration="normal" x="710.4335327148438" y="321" text-anchor="start" dominant-baseline="alphabetic" transform="matrix(1, 0, 0, 1, 0.5, 0.5)" fill-opacity="1">10/01</text><text fill="rgb(68,68,68)" stroke="none" font-family="helvetica" font-size="13px" font-style="italic" font-weight="normal" text-decoration="normal" x="439.02001953125" y="344" text-anchor="start" dominant-baseline="alphabetic" transform="matrix(1, 0, 0, 1, 0.5, 0.5)" fill-opacity="1">day</text><path fill="none" stroke="rgb(0,0,0)" paint-order="fill" d="M 61.5 300.5 L 61.5 5.5" stroke-opacity="1" stroke-linejoin="bevel" stroke-miterlimit="10" stroke-dasharray=""/><path fill="none" stroke="rgb(0,0,0)" paint-order="fill" d="M 55.5 287.5 L 63.5 287.5 M 55.5 225.5 L 63.5 225.5 M 55.5 163.5 L 63.5 163.5 M 55.5 102.5 L 63.5 102.5 M 55.5 40.5 L 63.5 40.5" stroke-opacity="1" stroke-linejoin="bevel" stroke-miterlimit="10" stroke-dasharray=""/><path fill="none" stroke="rgb(0,0,0)" paint-order="fill" d="M 57.5 299.5 L 61.5 299.5 M 57.5 287.5 L 61.5 287.5 M 57.5 274.5 L 61.5 274.5 M 57.5 262.5 L 61.5 262.5 M 57.5 250.5 L 61.5 250.5 M 57.5 237.5 L 61.5 237.5 M 57.5 225.5 L 61.5 225.5 M 57.5 213.5 L 61.5 213.5 M 57.5 200.5 L 61.5 200.5 M 57.5 188.5 L 61.5 188.5 M 57.5 176.5 L 61.5 176.5 M 57.5 163.5 L 61.5 163.5 M 57.5 151.5 L 61.5 151.5 M 57.5 139.5 L 61.5 139.5 M 57.5 126.5 L 61.5 126.5 M 57.5 114.5 L 61.5 114.5 M 57.5 102.5 L 61.5 102.5 M 57.5 89.5 L 61.5 89.5 M 57.5 77.5 L 61.5 77.5 M 57.5 65.5 L 61.5 65.5 M 57.5 52.5 L 61.5 52.5 M 57.5 40.5 L 61.5 40.5 M 57.5 28.5 L 61.5 28.5 M 57.5 15.5 L 61.5 15.5" stroke-opacity="1" stroke-linejoin="bevel" stroke-miterlimit="10" stroke-dasharray=""/><text fill="rgb(68,68,68)" stroke="none" font-family="helvetica" font-size="11px" font-style="normal" font-weight="normal" text-decoration="normal" x="43.88232421875" y="290.5359802246094" text-anchor="start" dominant-baseline="alphabetic" transform="matrix(1, 0, 0, 1, 0.5, 0.5)" fill-opacity="1">0</text><text fill="rgb(68,68,68)" stroke="none" font-family="helvetica" font-size="11px" font-style="normal" font-weight="normal" text-decoration="normal" x="25.529296875" y="228.87789916992188" text-anchor="start" dominant-baseline="alphabetic" transform="matrix(1, 0, 0, 1, 0.5, 0.5)" fill-opacity="1">2000</text><text fill="rgb(68,68,68)" stroke="none" font-family="helvetica" font-size="11px" font-style="normal" font-weight="normal" text-decoration="normal" x="25.529296875" y="167.21981811523438" text-anchor="start" dominant-baseline="alphabetic" transform="matrix(1, 0, 0, 1, 0.5, 0.5)" fill-opacity="1">4000</text><text fill="rgb(68,68,68)" stroke="none" font-family="helvetica" font-size="11px" font-style="normal" font-weight="normal" text-decoration="normal" x="25.529296875" y="105.56173706054688" text-anchor="start" dominant-baseline="alphabetic" transform="matrix(1, 0, 0, 1, 0.5, 0.5)" fill-opacity="1">6000</text><text fill="rgb(68,68,68)" stroke="none" font-family="helvetica" font-size="11px" font-style="normal" font-weight="normal" text-decoration="normal" x="25.529296875" y="43.90365982055664" text-anchor="start" dominant-baseline="alphabetic" transform="matrix(1, 0, 0, 1, 0.5, 0.5)" fill-opacity="1">8000</text><text fill="rgb(68,68,68)" stroke="none" font-family="helvetica" font-size="13px" font-style="italic" font-weight="normal" text-decoration="normal" x="-49.31787109375" y="149.5" text-anchor="start" dominant-baseline="alphabetic" transform="matrix(6.123233995736766e-17, -1, 1, 6.123233995736766e-17, -134.470703125, 170.529296875)" fill-opacity="1">Document Length Total</text><path fill="none" stroke="rgb(0,0,0)" paint-order="fill" d="M 838.5 300.5 L 838.5 5.5" stroke-opacity="1" stroke-linejoin="bevel" stroke-miterlimit="10" stroke-dasharray=""/><path fill="none" stroke="rgb(0,0,0)" paint-order="fill" d="M 844.5 300.5 L 836.5 300.5 M 844.5 257.5 L 836.5 257.5 M 844.5 214.5 L 836.5 214.5 M 844.5 171.5 L 836.5 171.5 M 844.5 128.5 L 836.5 128.5 M 844.5 86.5 L 836.5 86.5 M 844.5 43.5 L 836.5 43.5" stroke-opacity="1" stroke-linejoin="bevel" stroke-miterlimit="10" stroke-dasharray=""/><path fill="none" stroke="rgb(0,0,0)" paint-order="fill" d="M 842.5 300.5 L 838.5 300.5 M 842.5 291.5 L 838.5 291.5 M 842.5 283.5 L 838.5 283.5 M 842.5 274.5 L 838.5 274.5 M 842.5 266.5 L 838.5 266.5 M 842.5 257.5 L 838.5 257.5 M 842.5 249.5 L 838.5 249.5 M 842.5 240.5 L 838.5 240.5 M 842.5 231.5 L 838.5 231.5 M 842.5 223.5 L 838.5 223.5 M 842.5 214.5 L 838.5 214.5 M 842.5 206.5 L 838.5 206.5 M 842.5 197.5 L 838.5 197.5 M 842.5 188.5 L 838.5 188.5 M 842.5 180.5 L 838.5 180.5 M 842.5 171.5 L 838.5 171.5 M 842.5 163.5 L 838.5 163.5 M 842.5 154.5 L 838.5 154.5 M 842.5 146.5 L 838.5 146.5 M 842.5 137.5 L 838.5 137.5 M 842.5 128.5 L 838.5 128.5 M 842.5 120.5 L 838.5 120.5 M 842.5 111.5 L 838.5 111.5 M 842.5 103.5 L 838.5 103.5 M 842.5 94.5 L 838.5 94.5 M 842.5 86.5 L 838.5 86.5 M 842.5 77.5 L 838.5 77.5 M 842.5 68.5 L 838.5 68.5 M 842.5 60.5 L 838.5 60.5 M 842.5 51.5 L 838.5 51.5 M 842.5 43.5 L 838.5 43.5 M 842.5 34.5 L 838.5 34.5 M 842.5 25.5 L 838.5 25.5 M 842.5 17.5 L 838.5 17.5 M 842.5 8.5 L 838.5 8.5" stroke-opacity="1" stroke-linejoin="bevel" stroke-miterlimit="10" stroke-dasharray=""/><text fill="rgb(68,68,68)" stroke="none" font-family="helvetica" font-size="11px" font-style="normal" font-weight="normal" text-decoration="normal" x="849" y="303.945068359375" text-anchor="start" dominant-baseline="alphabetic" transform="matrix(1, 0, 0, 1, 0.5, 0.5)" fill-opacity="1">0</text><text fill="rgb(68,68,68)" stroke="none" font-family="helvetica" font-size="11px" font-style="normal" font-weight="normal" text-decoration="normal" x="849" y="261.0484619140625" text-anchor="start" dominant-baseline="alphabetic" transform="matrix(1, 0, 0, 1, 0.5, 0.5)" fill-opacity="1">100</text><text fill="rgb(68,68,68)" stroke="none" font-family="helvetica" font-size="11px" font-style="normal" font-weight="normal" text-decoration="normal" x="849" y="218.15184020996094" text-anchor="start" dominant-baseline="alphabetic" transform="matrix(1, 0, 0, 1, 0.5, 0.5)" fill-opacity="1">200</text><text fill="rgb(68,68,68)" stroke="none" font-family="helvetica" font-size="11px" font-style="normal" font-weight="normal" text-decoration="normal" x="849" y="175.25523376464844" text-anchor="start" dominant-baseline="alphabetic" transform="matrix(1, 0, 0, 1, 0.5, 0.5)" fill-opacity="1">300</text><text fill="rgb(68,68,68)" stroke="none" font-family="helvetica" font-size="11px" font-style="normal" font-weight="normal" text-decoration="normal" x="849" y="132.35862731933594" text-anchor="start" dominant-baseline="alphabetic" transform="matrix(1, 0, 0, 1, 0.5, 0.5)" fill-opacity="1">400</text><text fill="rgb(68,68,68)" stroke="none" font-family="helvetica" font-size="11px" font-style="normal" font-weight="normal" text-decoration="normal" x="849" y="89.46200561523438" text-anchor="start" dominant-baseline="alphabetic" transform="matrix(1, 0, 0, 1, 0.5, 0.5)" fill-opacity="1">500</text><text fill="rgb(68,68,68)" stroke="none" font-family="helvetica" font-size="11px" font-style="normal" font-weight="normal" text-decoration="normal" x="849" y="46.56539535522461" text-anchor="start" dominant-baseline="alphabetic" transform="matrix(1, 0, 0, 1, 0.5, 0.5)" fill-opacity="1">600</text><path fill="rgb(255,255,255)" stroke="rgb(229,229,229)" paint-order="fill" d="M 697.5614013671875 15.5 L 828.5 15.5 L 828.5 78.5 L 697.5614013671875 78.5 L 697.5614013671875 15.5" fill-opacity="0.9490196078431372" clip-path="url(#EedNZJxHEiVH)" stroke-opacity="0.5019607843137255" stroke-linejoin="bevel" stroke-miterlimit="10" stroke-dasharray=""/><g clip-path="url(#EedNZJxHEiVH)"><text fill="rgb(68,68,68)" stroke="none" font-family="helvetica" font-size="13px" font-style="normal" font-weight="normal" text-decoration="normal" x="732.0614013671875" y="35" text-anchor="start" dominant-baseline="central" transform="matrix(1, 0, 0, 1, 0.5, 0.5)" fill-opacity="1">수정된 문서의 양</text></g><path fill="none" stroke="rgb(168,221,181)" paint-order="fill" d="M 707.5614013671875 35.5 L 727.5614013671875 35.5" stroke-opacity="1" stroke-linejoin="bevel" stroke-miterlimit="10" stroke-width="4" stroke-dasharray="" clip-path="url(#EedNZJxHEiVH)"/><g clip-path="url(#EedNZJxHEiVH)"><text fill="rgb(68,68,68)" stroke="none" font-family="helvetica" font-size="13px" font-style="normal" font-weight="normal" text-decoration="normal" x="732.0614013671875" y="58" text-anchor="start" dominant-baseline="central" transform="matrix(1, 0, 0, 1, 0.5, 0.5)" fill-opacity="1">수정된 양</text></g><path fill="rgb(255,0,0)" stroke="rgb(255,0,0)" paint-order="fill" d="M 709.5614013671875 50.5 L 725.5614013671875 50.5 L 725.5614013671875 66.5 L 709.5614013671875 66.5 L 709.5614013671875 50.5" fill-opacity="1" clip-path="url(#EedNZJxHEiVH)" stroke-opacity="1" stroke-linejoin="bevel" stroke-miterlimit="10" stroke-dasharray=""/></svg>