<svg version="1.1" xmlns="http://www.w3.org/2000/svg" width="900" height="350"><defs><clipPath id="wNWrFpTNMtKx"><path fill="none" stroke="none" d="M 61.5 5.5 L 838.5 5.5 L 838.5 300.5 L 61.5 300.5 L 61.5 5.5"/></clipPath><clipPath id="wCLmTbWKLvXw"><path fill="none" stroke="none" d="M 61.5 5.5 L 838.5 5.5 L 838.5 300.5 L 61.5 300.5 L 61.5 5.5"/></clipPath><clipPath id="qsoUSKIfuNMp"><path fill="none" stroke="none" d="M 61.5 5.5 L 838.5 5.5 L 838.5 300.5 L 61.5 300.5 L 61.5 5.5"/></clipPath><clipPath id="VlCAzllJzsVL"><path fill="none" stroke="none" d="M 61.5 5.5 L 838.5 5.5 L 838.5 300.5 L 61.5 300.5 L 61.5 5.5"/></clipPath><clipPath id="kQMRsDsaGAKp"><path fill="none" stroke="none" d="M 61.5 5.5 L 838.5 5.5 L 838.5 300.5 L 61.5 300.5 L 61.5 5.5"/></clipPath><clipPath id="QDDgATewfKHB"><path fill="none" stroke="none" d="M 61.5 5.5 L 838.5 5.5 L 838.5 300.5 L 61.5 300.5 L 61.5 5.5"/></clipPath></defs><path fill="rgb(255,255,255)" stroke="none" paint-order="stroke" d="M 0.5 0.5 L 900.5 0.5 L 900.5 350.5 L 0.5 350.5 L 0.5 0.5" fill-opacity="1"/><rect fill="#FFFFFF" stroke="none" x="61" y="5" width="777" height="295" transform="matrix(1, 0, 0, 1, 0.5, 0.5)"/><path fill="rgb(255,255,255)" stroke="none" paint-order="stroke" d="M 61.5 5.5 L 838.5 5.5 L 838.5 300.5 L 61.5 300.5 L 61.5 5.5" fill-opacity="1"/><path fill="none" stroke="rgb(229,229,229)" paint-order="fill" d="M 61.5 5.5 L 838.5 5.5 L 838.5 300.5 L 61.5 300.5 L 61.5 5.5" stroke-opacity="1" stroke-linejoin="bevel" stroke-miterlimit="10" stroke-dasharray=""/><path fill="none" stroke="rgb(229,229,229)" paint-order="fill" d="M 96.5 300.5 L 96.5 5.5 M 214.5 300.5 L 214.5 5.5 M 332.5 300.5 L 332.5 5.5 M 450.5 300.5 L 450.5 5.5 M 567.5 300.5 L 567.5 5.5 M 685.5 300.5 L 685.5 5.5 M 803.5 300.5 L 803.5 5.5" stroke-opacity="1" stroke-linejoin="bevel" stroke-miterlimit="10" stroke-dasharray="" clip-path="url(#wNWrFpTNMtKx)"/><path fill="none" stroke="rgb(229,229,229)" paint-order="fill" d="M 61.5 287.5 L 838.5 287.5 M 61.5 237.5 L 838.5 237.5 M 61.5 187.5 L 838.5 187.5 M 61.5 136.5 L 838.5 136.5 M 61.5 86.5 L 838.5 86.5 M 61.5 36.5 L 838.5 36.5" stroke-opacity="1" stroke-linejoin="bevel" stroke-miterlimit="10" stroke-dasharray="" clip-path="url(#wCLmTbWKLvXw)"/><path fill="none" stroke="rgb(168,221,181)" paint-order="fill" d="M 96.81818389892578 244.4540557861328 L 450 18.909090042114258 L 803.1818237304688 150.27264404296875" stroke-opacity="1" stroke-linejoin="bevel" stroke-miterlimit="10" stroke-width="4" stroke-dasharray="" clip-path="url(#qsoUSKIfuNMp)"/><path fill="rgb(255,0,0)" stroke="rgb(255,0,0)" paint-order="fill" d="M 96.81818389892578 300.5 L 96.81818389892578 300.5 L 96.81818389892578 300.5 L 96.81818389892578 300.5 L 96.81818389892578 300.5" fill-opacity="1" clip-path="url(#VlCAzllJzsVL)" stroke-opacity="1" stroke-linejoin="bevel" stroke-miterlimit="10" stroke-dasharray=""/><path fill="rgb(255,0,0)" stroke="rgb(255,0,0)" paint-order="fill" d="M 450 132.15760803222656 L 450 132.15760803222656 L 450 300.5 L 450 300.5 L 450 132.15760803222656" fill-opacity="1" clip-path="url(#VlCAzllJzsVL)" stroke-opacity="1" stroke-linejoin="bevel" stroke-miterlimit="10" stroke-dasharray=""/><path fill="rgb(255,0,0)" stroke="rgb(255,0,0)" paint-order="fill" d="M 803.1818237304688 43.9782600402832 L 803.1818237304688 43.9782600402832 L 803.1818237304688 300.5 L 803.1818237304688 300.5 L 803.1818237304688 43.9782600402832" fill-opacity="1" clip-path="url(#VlCAzllJzsVL)" stroke-opacity="1" stroke-linejoin="bevel" stroke-miterlimit="10" stroke-dasharray=""/><path fill="none" stroke="rgb(0,0,0)" paint-order="fill" d="M 61.5 300.5 L 838.5 300.5" stroke-opacity="1" stroke-linejoin="bevel" stroke-miterlimit="10" stroke-dasharray=""/><path fill="none" stroke="rgb(0,0,0)" paint-order="fill" d="M 96.5 306.5 L 96.5 298.5 M 214.5 306.5 L 214.5 298.5 M 332.5 306.5 L 332.5 298.5 M 450.5 306.5 L 450.5 298.5 M 567.5 306.5 L 567.5 298.5 M 685.5 306.5 L 685.5 298.5 M 803.5 306.5 L 803.5 298.5" stroke-opacity="1" stroke-linejoin="bevel" stroke-miterlimit="10" stroke-dasharray=""/><path fill="none" stroke="rgb(0,0,0)" paint-order="fill" d="" stroke-opacity="1" stroke-linejoin="bevel" stroke-miterlimit="10" stroke-dasharray=""/><text fill="rgb(68,68,68)" stroke="none" font-family="helvetica" font-size="11px" font-style="normal" font-weight="normal" text-decoration="normal" x="85.61359405517578" y="321" text-anchor="start" dominant-baseline="alphabetic" transform="matrix(1, 0, 0, 1, 0.5, 0.5)" fill-opacity="1">8/30</text><text fill="rgb(68,68,68)" stroke="none" font-family="helvetica" font-size="11px" font-style="normal" font-weight="normal" text-decoration="normal" x="207.9277801513672" y="321" text-anchor="start" dominant-baseline="alphabetic" transform="matrix(1, 0, 0, 1, 0.5, 0.5)" fill-opacity="1">8h</text><text fill="rgb(68,68,68)" stroke="none" font-family="helvetica" font-size="11px" font-style="normal" font-weight="normal" text-decoration="normal" x="322.5962219238281" y="321" text-anchor="start" dominant-baseline="alphabetic" transform="matrix(1, 0, 0, 1, 0.5, 0.5)" fill-opacity="1">16h</text><text fill="rgb(68,68,68)" stroke="none" font-family="helvetica" font-size="11px" font-style="normal" font-weight="normal" text-decoration="normal" x="438.79541015625" y="321" text-anchor="start" dominant-baseline="alphabetic" transform="matrix(1, 0, 0, 1, 0.5, 0.5)" fill-opacity="1">8/31</text><text fill="rgb(68,68,68)" stroke="none" font-family="helvetica" font-size="11px" font-style="normal" font-weight="normal" text-decoration="normal" x="561.109619140625" y="321" text-anchor="start" dominant-baseline="alphabetic" transform="matrix(1, 0, 0, 1, 0.5, 0.5)" fill-opacity="1">8h</text><text fill="rgb(68,68,68)" stroke="none" font-family="helvetica" font-size="11px" font-style="normal" font-weight="normal" text-decoration="normal" x="675.7780151367188" y="321" text-anchor="start" dominant-baseline="alphabetic" transform="matrix(1, 0, 0, 1, 0.5, 0.5)" fill-opacity="1">16h</text><text fill="rgb(68,68,68)" stroke="none" font-family="helvetica" font-size="11px" font-style="normal" font-weight="normal" text-decoration="normal" x="791.9772338867188" y="321" text-anchor="start" dominant-baseline="alphabetic" transform="matrix(1, 0, 0, 1, 0.5, 0.5)" fill-opacity="1">9/01</text><text fill="rgb(68,68,68)" stroke="none" font-family="helvetica" font-size="13px" font-style="italic" font-weight="normal" text-decoration="normal" x="439.02001953125" y="344" text-anchor="start" dominant-baseline="alphabetic" transform="matrix(1, 0, 0, 1, 0.5, 0.5)" fill-opacity="1">day</text><path fill="none" stroke="rgb(0,0,0)" paint-order="fill" d="M 61.5 300.5 L 61.5 5.5" stroke-opacity="1" stroke-linejoin="bevel" stroke-miterlimit="10" stroke-dasharray=""/><path fill="none" stroke="rgb(0,0,0)" paint-order="fill" d="M 55.5 287.5 L 63.5 287.5 M 55.5 237.5 L 63.5 237.5 M 55.5 187.5 L 63.5 187.5 M 55.5 136.5 L 63.5 136.5 M 55.5 86.5 L 63.5 86.5 M 55.5 36.5 L 63.5 36.5" stroke-opacity="1" stroke-linejoin="bevel" stroke-miterlimit="10" stroke-dasharray=""/><path fill="none" stroke="rgb(0,0,0)" paint-order="fill" d="M 57.5 297.5 L 61.5 297.5 M 57.5 287.5 L 61.5 287.5 M 57.5 277.5 L 61.5 277.5 M 57.5 267.5 L 61.5 267.5 M 57.5 257.5 L 61.5 257.5 M 57.5 247.5 L 61.5 247.5 M 57.5 237.5 L 61.5 237.5 M 57.5 227.5 L 61.5 227.5 M 57.5 217.5 L 61.5 217.5 M 57.5 207.5 L 61.5 207.5 M 57.5 197.5 L 61.5 197.5 M 57.5 187.5 L 61.5 187.5 M 57.5 176.5 L 61.5 176.5 M 57.5 166.5 L 61.5 166.5 M 57.5 156.5 L 61.5 156.5 M 57.5 146.5 L 61.5 146.5 M 57.5 136.5 L 61.5 136.5 M 57.5 126.5 L 61.5 126.5 M 57.5 116.5 L 61.5 116.5 M 57.5 106.5 L 61.5 106.5 M 57.5 96.5 L 61.5 96.5 M 57.5 86.5 L 61.5 86.5 M 57.5 76.5 L 61.5 76.5 M 57.5 66.5 L 61.5 66.5 M 57.5 56.5 L 61.5 56.5 M 57.5 46.5 L 61.5 46.5 M 57.5 36.5 L 61.5 36.5 M 57.5 26.5 L 61.5 26.5 M 57.5 16.5 L 61.5 16.5 M 57.5 6.5 L 61.5 6.5" stroke-opacity="1" stroke-linejoin="bevel" stroke-miterlimit="10" stroke-dasharray=""/><text fill="rgb(68,68,68)" stroke="none" font-family="helvetica" font-size="11px" font-style="normal" font-weight="normal" text-decoration="normal" x="43.88232421875" y="290.5359802246094" text-anchor="start" dominant-baseline="alphabetic" transform="matrix(1, 0, 0, 1, 0.5, 0.5)" fill-opacity="1">0</text><text fill="rgb(68,68,68)" stroke="none" font-family="helvetica" font-size="11px" font-style="normal" font-weight="normal" text-decoration="normal" x="25.529296875" y="240.4927215576172" text-anchor="start" dominant-baseline="alphabetic" transform="matrix(1, 0, 0, 1, 0.5, 0.5)" fill-opacity="1">1000</text><text fill="rgb(68,68,68)" stroke="none" font-family="helvetica" font-size="11px" font-style="normal" font-weight="normal" text-decoration="normal" x="25.529296875" y="190.449462890625" text-anchor="start" dominant-baseline="alphabetic" transform="matrix(1, 0, 0, 1, 0.5, 0.5)" fill-opacity="1">2000</text><text fill="rgb(68,68,68)" stroke="none" font-family="helvetica" font-size="11px" font-style="normal" font-weight="normal" text-decoration="normal" x="25.529296875" y="140.4062042236328" text-anchor="start" dominant-baseline="alphabetic" transform="matrix(1, 0, 0, 1, 0.5, 0.5)" fill-opacity="1">3000</text><text fill="rgb(68,68,68)" stroke="none" font-family="helvetica" font-size="11px" font-style="normal" font-weight="normal" text-decoration="normal" x="25.529296875" y="90.36294555664062" text-anchor="start" dominant-baseline="alphabetic" transform="matrix(1, 0, 0, 1, 0.5, 0.5)" fill-opacity="1">4000</text><text fill="rgb(68,68,68)" stroke="none" font-family="helvetica" font-size="11px" font-style="normal" font-weight="normal" text-decoration="normal" x="25.529296875" y="40.31968688964844" text-anchor="start" dominant-baseline="alphabetic" transform="matrix(1, 0, 0, 1, 0.5, 0.5)" fill-opacity="1">5000</text><text fill="rgb(68,68,68)" stroke="none" font-family="helvetica" font-size="13px" font-style="italic" font-weight="normal" text-decoration="normal" x="-49.31787109375" y="149.5" text-anchor="start" dominant-baseline="alphabetic" transform="matrix(6.123233995736766e-17, -1, 1, 6.123233995736766e-17, -134.470703125, 170.529296875)" fill-opacity="1">Document Length Total</text><path fill="none" stroke="rgb(0,0,0)" paint-order="fill" d="M 838.5 300.5 L 838.5 5.5" stroke-opacity="1" stroke-linejoin="bevel" stroke-miterlimit="10" stroke-dasharray=""/><path fill="none" stroke="rgb(0,0,0)" paint-order="fill" d="M 844.5 300.5 L 836.5 300.5 M 844.5 233.5 L 836.5 233.5 M 844.5 166.5 L 836.5 166.5 M 844.5 100.5 L 836.5 100.5 M 844.5 33.5 L 836.5 33.5" stroke-opacity="1" stroke-linejoin="bevel" stroke-miterlimit="10" stroke-dasharray=""/><path fill="none" stroke="rgb(0,0,0)" paint-order="fill" d="M 842.5 300.5 L 838.5 300.5 M 842.5 287.5 L 838.5 287.5 M 842.5 273.5 L 838.5 273.5 M 842.5 260.5 L 838.5 260.5 M 842.5 247.5 L 838.5 247.5 M 842.5 233.5 L 838.5 233.5 M 842.5 220.5 L 838.5 220.5 M 842.5 206.5 L 838.5 206.5 M 842.5 193.5 L 838.5 193.5 M 842.5 180.5 L 838.5 180.5 M 842.5 166.5 L 838.5 166.5 M 842.5 153.5 L 838.5 153.5 M 842.5 140.5 L 838.5 140.5 M 842.5 126.5 L 838.5 126.5 M 842.5 113.5 L 838.5 113.5 M 842.5 100.5 L 838.5 100.5 M 842.5 86.5 L 838.5 86.5 M 842.5 73.5 L 838.5 73.5 M 842.5 60.5 L 838.5 60.5 M 842.5 46.5 L 838.5 46.5 M 842.5 33.5 L 838.5 33.5 M 842.5 19.5 L 838.5 19.5 M 842.5 6.5 L 838.5 6.5" stroke-opacity="1" stroke-linejoin="bevel" stroke-miterlimit="10" stroke-dasharray=""/><text fill="rgb(68,68,68)" stroke="none" font-family="helvetica" font-size="11px" font-style="normal" font-weight="normal" text-decoration="normal" x="849" y="303.945068359375" text-anchor="start" dominant-baseline="alphabetic" transform="matrix(1, 0, 0, 1, 0.5, 0.5)" fill-opacity="1">0</text><text fill="rgb(68,68,68)" stroke="none" font-family="helvetica" font-size="11px" font-style="normal" font-weight="normal" text-decoration="normal" x="849" y="237.1425323486328" text-anchor="start" dominant-baseline="alphabetic" transform="matrix(1, 0, 0, 1, 0.5, 0.5)" fill-opacity="1">50</text><text fill="rgb(68,68,68)" stroke="none" font-family="helvetica" font-size="11px" font-style="normal" font-weight="normal" text-decoration="normal" x="849" y="170.33999633789062" text-anchor="start" dominant-baseline="alphabetic" transform="matrix(1, 0, 0, 1, 0.5, 0.5)" fill-opacity="1">100</text><text fill="rgb(68,68,68)" stroke="none" font-family="helvetica" font-size="11px" font-style="normal" font-weight="normal" text-decoration="normal" x="849" y="103.53746032714844" text-anchor="start" dominant-baseline="alphabetic" transform="matrix(1, 0, 0, 1, 0.5, 0.5)" fill-opacity="1">150</text><text fill="rgb(68,68,68)" stroke="none" font-family="helvetica" font-size="11px" font-style="normal" font-weight="normal" text-decoration="normal" x="849" y="36.73492431640625" text-anchor="start" dominant-baseline="alphabetic" transform="matrix(1, 0, 0, 1, 0.5, 0.5)" fill-opacity="1">200</text><path fill="rgb(255,255,255)" stroke="rgb(229,229,229)" paint-order="fill" d="M 697.5614013671875 15.5 L 828.5 15.5 L 828.5 78.5 L 697.5614013671875 78.5 L 697.5614013671875 15.5" fill-opacity="0.9490196078431372" clip-path="url(#kQMRsDsaGAKp)" stroke-opacity="0.5019607843137255" stroke-linejoin="bevel" stroke-miterlimit="10" stroke-dasharray=""/><g clip-path="url(#kQMRsDsaGAKp)"><text fill="rgb(68,68,68)" stroke="none" font-family="helvetica" font-size="13px" font-style="normal" font-weight="normal" text-decoration="normal" x="732.0614013671875" y="35" text-anchor="start" dominant-baseline="central" transform="matrix(1, 0, 0, 1, 0.5, 0.5)" fill-opacity="1">수정된 문서의 양</text></g><path fill="none" stroke="rgb(168,221,181)" paint-order="fill" d="M 707.5614013671875 35.5 L 727.5614013671875 35.5" stroke-opacity="1" stroke-linejoin="bevel" stroke-miterlimit="10" stroke-width="4" stroke-dasharray="" clip-path="url(#kQMRsDsaGAKp)"/><g clip-path="url(#kQMRsDsaGAKp)"><text fill="rgb(68,68,68)" stroke="none" font-family="helvetica" font-size="13px" font-style="normal" font-weight="normal" text-decoration="normal" x="732.0614013671875" y="58" text-anchor="start" dominant-baseline="central" transform="matrix(1, 0, 0, 1, 0.5, 0.5)" fill-opacity="1">수정된 양</text></g><path fill="rgb(255,0,0)" stroke="rgb(255,0,0)" paint-order="fill" d="M 709.5614013671875 50.5 L 725.5614013671875 50.5 L 725.5614013671875 66.5 L 709.5614013671875 66.5 L 709.5614013671875 50.5" fill-opacity="1" clip-path="url(#kQMRsDsaGAKp)" stroke-opacity="1" stroke-linejoin="bevel" stroke-miterlimit="10" stroke-dasharray=""/></svg>